<?xml version="1.0" encoding="utf-8"?>
<!DOCTYPE svg PUBLIC "-//W3C//DTD SVG 1.1//EN" "http://www.w3.org/Graphics/SVG/1.1/DTD/svg11.dtd">
<svg version="1.1" xmlns="http://www.w3.org/2000/svg" xmlns:xlink="http://www.w3.org/1999/xlink" xmlns:xml="http://www.w3.org/XML/1998/namespace" width="1280" height="720" overflow="hidden">
  <defs>
    <clipPath id="clip0">
      <rect x="0" y="0" width="1280" height="720" />
    </clipPath>
    <clipPath id="clip1">
      <rect x="0" y="0" width="466725" height="457200" />
    </clipPath>
    <image preserveAspectRatio="none" width="150" height="88" xlink:href="images/Slide6--img2.png" id="img2" />
    <clipPath id="clip3">
      <path d="M157640 0 L619644 0 L619644 457200 L157640 457200 Z" clip-rule="evenodd" fill-rule="evenodd" />
    </clipPath>
    <clipPath id="clip4">
      <rect x="0" y="0" width="533400" height="409575" />
    </clipPath>
    <image preserveAspectRatio="none" width="115" height="115" xlink:href="images/Slide6--img5.png" id="img5" />
    <clipPath id="clip6">
      <path d="M45634.9 106494 L579035 106494 L579035 514487 L45634.9 514487 Z" clip-rule="evenodd" fill-rule="evenodd" />
    </clipPath>
    <clipPath id="clip7">
      <rect x="0" y="-9.31323E-10" width="1276350" height="419100" />
    </clipPath>
    <image preserveAspectRatio="none" width="140" height="63" xlink:href="images/Slide6--img8.png" id="img8" />
    <clipPath id="clip9">
      <rect x="0" y="17356.8" width="1241743" height="419100" />
    </clipPath>
    <clipPath id="clip10">
      <rect x="0" y="-9.31323E-10" width="1504950" height="485775" />
    </clipPath>
    <image preserveAspectRatio="none" width="247" height="72" xlink:href="images/Slide6--img11.png" id="img11" />
    <clipPath id="clip12">
      <path d="M39188.8 3879.4 L1532296 3879.4 L1532296 456938 L39188.8 456938 Z" clip-rule="evenodd" fill-rule="evenodd" />
    </clipPath>
    <clipPath id="clip13">
      <rect x="-1.45519E-11" y="-7.27596E-12" width="1800225" height="523875" />
    </clipPath>
    <image preserveAspectRatio="none" width="280" height="125" xlink:href="images/Slide6--img14.png" id="img14" />
    <clipPath id="clip15">
      <path d="M33456.6 78773.1 L1833682 78773.1 L1833682 601623 L33456.6 601623 Z" clip-rule="evenodd" fill-rule="evenodd" />
    </clipPath>
    <clipPath id="clip16">
      <rect x="0" y="-9.31323E-10" width="476250" height="447675" />
    </clipPath>
    <image preserveAspectRatio="none" width="160" height="90" xlink:href="images/Slide6--img17.png" id="img17" />
    <clipPath id="clip18">
      <rect x="301852" y="78996.1" width="470527" height="447675" />
    </clipPath>
    <image preserveAspectRatio="none" width="75" height="79" xlink:href="images/Slide6--img19.png" id="img19" />
    <clipPath id="clip20">
      <rect x="0" y="0" width="428625" height="451485" />
    </clipPath>
    <clipPath id="clip21">
      <rect x="0" y="0" width="609600" height="609600" />
    </clipPath>
    <image preserveAspectRatio="none" width="64" height="64" xlink:href="images/Slide6--img22.png" id="img22" />
    <clipPath id="clip23">
      <rect x="-1" y="-0.5" width="609600" height="609600" />
    </clipPath>
  </defs>
  <g clip-path="url(#clip0)" id="gSlide--slide6">
    <rect x="0" y="0" width="1280" height="720" id="rectSlide--slide6--0" style="fill:white;" />
    <rect x="0" y="660" width="1280" height="60" id="BottomRectangle--slide6--1" style="fill:#8064A2;" />
    <rect x="0" y="0" width="1280" height="67" id="TopRectangle--slide6--2" style="fill:#8064A2;" />
    <a href="#slide1" id="rect1--slide6--3__LINK">
      <path d="M5.50005 13.8335 C5.50005 8.12651 10.1265 3.50005 15.8335 3.50005 L202.167 3.50005 C207.874 3.50005 212.5 8.12651 212.5 13.8335 L212.5 55.1666 C212.5 60.8736 207.874 65.5001 202.167 65.5001 L15.8335 65.5001 C10.1265 65.5001 5.50005 60.8736 5.50005 55.1666 Z" id="rect1--slide6--3" fill-rule="evenodd" stroke-width="1.33333" stroke-miterlimit="8" style="fill:white;stroke:#4F81BD;" />
    </a>
    <a href="#slide2" id="rect2--slide6--4__LINK">
      <path d="M218.5 13.8336 C218.5 8.12656 223.127 3.50005 228.834 3.50005 L414.166 3.50005 C419.874 3.50005 424.5 8.12656 424.5 13.8336 L424.5 55.1665 C424.5 60.8735 419.874 65.5 414.166 65.5 L228.834 65.5 C223.127 65.5 218.5 60.8735 218.5 55.1665 Z" id="rect2--slide6--4" fill-rule="evenodd" stroke-width="1.33333" stroke-miterlimit="8" style="fill:white;stroke:#4F81BD;" />
      <text transform="translate(263.493, 48)" id="rect2--slide6--5" font-family="Carlito,sans-serif" font-size="43" font-weight="700" style="fill:#8064A2;">Create</text>
    </a>
    <a href="#slide3" id="rect3--slide6--6__LINK">
      <path d="M431.5 13.8336 C431.5 8.12656 436.127 3.50005 441.834 3.50005 L627.167 3.50005 C632.874 3.50005 637.5 8.12656 637.5 13.8336 L637.5 55.1665 C637.5 60.8735 632.874 65.5 627.167 65.5 L441.834 65.5 C436.127 65.5 431.5 60.8735 431.5 55.1665 Z" id="rect3--slide6--6" fill-rule="evenodd" stroke-width="1.33333" stroke-miterlimit="8" style="fill:white;stroke:#4F81BD;" />
      <text transform="translate(464.339, 48)" id="rect3--slide6--7" font-family="Carlito,sans-serif" font-size="43" font-weight="700" style="fill:#8064A2;">Convert</text>
    </a>
    <a href="#slide4" id="rect4--slide6--8__LINK">
      <path d="M644.5 13.8336 C644.5 8.12656 649.127 3.50005 654.834 3.50005 L840.167 3.50005 C845.874 3.50005 850.5 8.12656 850.5 13.8336 L850.5 55.1665 C850.5 60.8735 845.874 65.5 840.167 65.5 L654.834 65.5 C649.127 65.5 644.5 60.8735 644.5 55.1665 Z" id="rect4--slide6--8" fill-rule="evenodd" stroke-width="1.33333" stroke-miterlimit="8" style="fill:white;stroke:#4F81BD;" />
      <text transform="translate(682.131, 48)" id="rect4--slide6--9" font-family="Carlito,sans-serif" font-size="43" font-weight="700" style="fill:#8064A2;">Publish</text>
    </a>
    <a href="#slide5" id="rect5--slide6--10__LINK">
      <path d="M856.5 13.8335 C856.5 8.12651 861.127 3.50005 866.834 3.50005 L1053.17 3.50005 C1058.87 3.50005 1063.5 8.12651 1063.5 13.8335 L1063.5 55.1666 C1063.5 60.8736 1058.87 65.5001 1053.17 65.5001 L866.834 65.5001 C861.127 65.5001 856.5 60.8736 856.5 55.1666 Z" id="rect5--slide6--10" fill-rule="evenodd" stroke-width="1.33333" stroke-miterlimit="8" style="fill:white;stroke:#4F81BD;" />
      <text transform="translate(875.217, 48)" id="rect5--slide6--11" font-family="Carlito,sans-serif" font-size="43" font-weight="700" style="fill:#8064A2;">Roadmap</text>
    </a>
    <a href="#slide6" id="rect6--slide6--12__LINK">
      <path d="M1069.5 13.8336 C1069.5 8.12656 1074.13 3.50005 1079.83 3.50005 L1265.17 3.50005 C1270.87 3.50005 1275.5 8.12656 1275.5 13.8336 L1275.5 55.1665 C1275.5 60.8735 1270.87 65.5 1265.17 65.5 L1079.83 65.5 C1074.13 65.5 1069.5 60.8735 1069.5 55.1665 Z" id="rect6--slide6--12" fill-rule="evenodd" stroke-width="1.33333" stroke-miterlimit="8" style="fill:white;stroke:#4F81BD;" />
      <text transform="translate(1102.47, 48)" id="rect6--slide6--13" font-family="Carlito,sans-serif" font-size="43" font-weight="700" style="fill:#8064A2;">Options</text>
    </a>
    <a href="https://github.com/MultimodalSlides/MultimodalSlides.github.io" id="imgGitHub--slide6--14__LINK" target="_blank">
      <title>Multimodal Slides GitHub Repository</title>
      <g clip-path="url(#clip1)" transform="matrix(0.000104987, 0, 0, 0.000104987, 701, 664)" id="imgGitHub--slide6--14">
        <g clip-path="url(#clip3)" transform="matrix(1.01022, 0, 0, 1, -159252, 0)">
          <use xlink:href="#img2" width="100%" height="100%" transform="scale(5195.45)" />
        </g>
      </g>
    </a>
    <a href="https://www.youtube.com/@MultimodalSlides" id="imgYouTube--slide6--15__LINK" target="_blank">
      <title>Multimodal Slides YouTube Channel</title>
      <g clip-path="url(#clip4)" transform="matrix(0.000104987, 0, 0, 0.000104987, 520, 669)" id="imgYouTube--slide6--15">
        <g clip-path="url(#clip6)" transform="matrix(1, 0, 0, 1.00388, -45635.5, -106907)">
          <use xlink:href="#img5" width="100%" height="100%" transform="scale(5427.79)" />
        </g>
      </g>
    </a>
    <a href="https://multimodalslides.com/" id="imgMultimodalSlides--slide6--16__LINK" target="_blank">
      <title>Goto MultimodalSlides.com</title>
      <g clip-path="url(#clip7)" transform="matrix(0.000104987, 0, 0, 0.000104987, 1132, 666)" id="imgMultimodalSlides--slide6--16">
        <g clip-path="url(#clip9)" transform="matrix(1.02787, 0, 0, 1, -1, -17356.5)">
          <use xlink:href="#img8" width="100%" height="100%" transform="scale(9279.37)" />
        </g>
      </g>
    </a>
    <text transform="translate(1012.7, 695)" id="rectMultimodalSlides--slide6--17" font-family="Carlito,sans-serif" font-size="21" font-weight="700" style="fill:white;">Created with</text>
    <a href="mailto:John@MultimodalSlides.com?subject=[Please%20Provide%20Subject]&body=Please answer the questions below to help reduce spam...%0D%0A%0D%0ADo you want to be added to my mailing list? (Yes, No)%0D%0A%0D%0AHow did you hear about me?  (My Site, YouTube, LinkedIn, GitHub, Sessionize, Search, Word-of-Mouth)%0D%0A%0D%0AHow can I help?%0D%0A" id="rectEmail--slide6--18__LINK">
      <title>Email Me</title>
      <text transform="translate(14.7744, 698)" id="rectEmail--slide6--18" font-family="Carlito,sans-serif" font-size="21" font-weight="400" style="fill:white;">John@MultimodalSlides.com</text>
    </a>
    <path d="M14.7744 699.933 L77.7744 699.933 L140.774 699.933 L203.774 699.933 L266.774 699.933 L266.774 700.933 L203.774 700.933 L140.774 700.933 L77.7744 700.933 L14.7744 700.933 Z" id="rectEmail--slide6--19" fill-rule="evenodd" style="fill:white;" />
    <a href="https://johnbaluka.com/" id="imgJohnBaluka--slide6--20__LINK" target="_blank">
      <title>Goto JohnBaluka.com</title>
      <g clip-path="url(#clip10)" transform="matrix(0.000104987, 0, 0, 0.000104987, 316, 666)" id="imgJohnBaluka--slide6--20">
        <g clip-path="url(#clip12)" transform="matrix(1.00793, 0, 0, 1, -39499.6, -3879.41)">
          <use xlink:href="#img11" width="100%" height="100%" transform="scale(6346.36)" />
        </g>
      </g>
    </a>
    <a href="#slide1" id="imgMultimodalSlidesTop--slide6--21__LINK">
      <g clip-path="url(#clip13)" transform="matrix(0.000104987, 0, 0, 0.000104987, 12, 6)" id="imgMultimodalSlidesTop--slide6--21">
        <g clip-path="url(#clip15)" transform="matrix(1, 0, 0, 1.00196, -33456.7, -78927.5)">
          <use xlink:href="#img14" width="100%" height="100%" transform="scale(7180.77)" />
        </g>
      </g>
    </a>
    <a href="https://multimodalslides.com/modes/MultimodalSlides.pptx" id="imgPowerPoint--slide6--22__LINK" target="_blank">
      <title>Download the Source PowerPoint for this Site</title>
      <g clip-path="url(#clip16)" transform="matrix(0.000104987, 0, 0, 0.000104987, 647, 666)" id="imgPowerPoint--slide6--22">
        <g clip-path="url(#clip18)" transform="matrix(1.01216, 0, 0, 1, -305523, -78996.3)">
          <use xlink:href="#img17" width="100%" height="100%" transform="scale(6793.08)" />
        </g>
      </g>
    </a>
    <a href="https://multimodalslides.com/modes/MultimodalSlides.pdf" id="imgPDF--slide6--23__LINK" target="_blank">
      <title>Download a PDF of this Site</title>
      <g transform="matrix(0.000104987, 0, 0, 0.000104987, 588, 665)" id="imgPDF--slide6--23">
        <g clip-path="url(#clip20)" transform="scale(1, 1.01266)">
          <use xlink:href="#img19" width="100%" height="100%" transform="scale(5715)" />
        </g>
      </g>
    </a>
    <text transform="translate(9.6, -22)" id="TitlePlaceholder--slide6--24" font-family="Carlito,sans-serif" font-size="39" font-weight="300">Options</text>
    <text transform="translate(1202.28, -17)" id="SectionNameTextPlaceholder--slide6--25" font-family="Carlito,sans-serif" font-size="21" font-weight="400">Options</text>
    <path d="M1223.5 129.667 L1223.5 226.333 C1223.5 239.68 1211.84 250.5 1197.45 250.5 L413.5 250.5 L413.5 250.5 L413.5 105.5 L413.5 105.5 L1197.45 105.5 C1211.84 105.5 1223.5 116.32 1223.5 129.667 Z" id="Freeform_12--slide6--26" fill-rule="evenodd" stroke-width="1.33333" stroke-miterlimit="8" fill-opacity="0.9" stroke-opacity="0.9" class="fragment-off" data-fragment-index="1" style="fill:#D0D8E8;stroke:#D0D8E8;" />
    <text transform="translate(423.268, 143)" id="Freeform_12--slide6--27" font-family="Carlito,sans-serif" font-size="35" font-weight="400" class="fragment-off" data-fragment-index="1">•</text>
    <text transform="translate(447.268, 143)" id="Freeform_12--slide6--28" font-family="Carlito,sans-serif" font-size="35" font-weight="400" class="fragment-off" data-fragment-index="1">Process a Handful of Presentations</text>
    <text transform="translate(423.268, 187)" id="Freeform_12--slide6--29" font-family="Carlito,sans-serif" font-size="35" font-weight="400" class="fragment-off" data-fragment-index="1">•</text>
    <text transform="translate(447.268, 187)" id="Freeform_12--slide6--30" font-family="Carlito,sans-serif" font-size="35" font-weight="400" class="fragment-off" data-fragment-index="1">$,$$$</text>
    <text transform="translate(423.268, 231)" id="Freeform_12--slide6--31" font-family="Carlito,sans-serif" font-size="35" font-weight="400" class="fragment-off" data-fragment-index="1">•</text>
    <text transform="translate(447.268, 231)" id="Freeform_12--slide6--32" font-family="Carlito,sans-serif" font-size="35" font-weight="400" class="fragment-off" data-fragment-index="1">1</text>
    <text transform="translate(464.768, 231)" id="Freeform_12--slide6--33" font-family="Carlito,sans-serif" font-size="35" font-weight="400" class="fragment-off" data-fragment-index="1">-</text>
    <text transform="translate(475.435, 231)" id="Freeform_12--slide6--34" font-family="Carlito,sans-serif" font-size="35" font-weight="400" class="fragment-off" data-fragment-index="1">4 days</text>
    <path d="M56.5001 115.834 C56.5001 99.081 71.0956 85.5001 89.1002 85.5001 L380.9 85.5001 C398.904 85.5001 413.5 99.081 413.5 115.834 L413.5 237.166 C413.5 253.919 398.904 267.5 380.9 267.5 L89.1002 267.5 C71.0956 267.5 56.5001 253.919 56.5001 237.166 L56.5001 115.834 Z" id="Freeform_13--slide6--35" fill-rule="evenodd" stroke-width="1.33333" stroke-miterlimit="8" class="fragment-off" data-fragment-index="1" style="fill:#4F81BD;stroke:white;" />
    <text transform="translate(90.0428, 193)" id="Freeform_13--slide6--36" font-family="Carlito,sans-serif" font-size="64" font-weight="400" class="fragment-off" data-fragment-index="1" style="fill:white;">Conversion</text>
    <path d="M1223.5 321.667 L1223.5 418.333 C1223.5 431.68 1211.84 442.5 1197.45 442.5 L413.5 442.5 L413.5 442.5 L413.5 297.5 L413.5 297.5 L1197.45 297.5 C1211.84 297.5 1223.5 308.32 1223.5 321.667 Z" id="Freeform_14--slide6--37" fill-rule="evenodd" stroke-width="1.33333" stroke-miterlimit="8" fill-opacity="0.9" stroke-opacity="0.9" class="fragment-off" data-fragment-index="2" style="fill:#D0D8E8;stroke:#D0D8E8;" />
    <text transform="translate(423.268, 336)" id="Freeform_14--slide6--38" font-family="Carlito,sans-serif" font-size="35" font-weight="400" class="fragment-off" data-fragment-index="2">•</text>
    <text transform="translate(447.268, 336)" id="Freeform_14--slide6--39" font-family="Carlito,sans-serif" font-size="35" font-weight="400" class="fragment-off" data-fragment-index="2">Process and Deploy</text>
    <text transform="translate(423.268, 380)" id="Freeform_14--slide6--40" font-family="Carlito,sans-serif" font-size="35" font-weight="400" class="fragment-off" data-fragment-index="2">•</text>
    <text transform="translate(447.268, 380)" id="Freeform_14--slide6--41" font-family="Carlito,sans-serif" font-size="35" font-weight="400" class="fragment-off" data-fragment-index="2">$$,$$$</text>
    <text transform="translate(423.268, 424)" id="Freeform_14--slide6--42" font-family="Carlito,sans-serif" font-size="35" font-weight="400" class="fragment-off" data-fragment-index="2">•</text>
    <text transform="translate(447.268, 424)" id="Freeform_14--slide6--43" font-family="Carlito,sans-serif" font-size="35" font-weight="400" class="fragment-off" data-fragment-index="2">4</text>
    <text transform="translate(464.768, 424)" id="Freeform_14--slide6--44" font-family="Carlito,sans-serif" font-size="35" font-weight="400" class="fragment-off" data-fragment-index="2">-</text>
    <text transform="translate(475.435, 424)" id="Freeform_14--slide6--45" font-family="Carlito,sans-serif" font-size="35" font-weight="400" class="fragment-off" data-fragment-index="2">12 weeks</text>
    <path d="M56.5001 308.667 C56.5001 292.006 71.0956 278.5 89.1002 278.5 L380.9 278.5 C398.904 278.5 413.5 292.006 413.5 308.667 L413.5 429.333 C413.5 445.994 398.904 459.5 380.9 459.5 L89.1002 459.5 C71.0956 459.5 56.5001 445.994 56.5001 429.333 L56.5001 308.667 Z" id="Freeform_15--slide6--46" fill-rule="evenodd" stroke-width="1.33333" stroke-miterlimit="8" class="fragment-off" data-fragment-index="2" style="fill:#4F81BD;stroke:white;" />
    <text transform="translate(101.993, 390)" id="Freeform_15--slide6--47" font-family="Carlito,sans-serif" font-size="80" font-weight="400" class="fragment-off" data-fragment-index="2" style="fill:white;">Website</text>
    <path d="M1224.5 514.667 L1224.5 611.333 C1224.5 624.68 1212.84 635.5 1198.45 635.5 L414.5 635.5 L414.5 635.5 L414.5 490.5 L414.5 490.5 L1198.45 490.5 C1212.84 490.5 1224.5 501.32 1224.5 514.667 Z" id="Freeform_16--slide6--48" fill-rule="evenodd" stroke-width="1.33333" stroke-miterlimit="8" fill-opacity="0.9" stroke-opacity="0.9" class="fragment-off" data-fragment-index="3" style="fill:#D0D8E8;stroke:#D0D8E8;" />
    <text transform="translate(424.238, 528)" id="Freeform_16--slide6--49" font-family="Carlito,sans-serif" font-size="35" font-weight="400" class="fragment-off" data-fragment-index="3">•</text>
    <text transform="translate(448.238, 528)" id="Freeform_16--slide6--50" font-family="Carlito,sans-serif" font-size="35" font-weight="400" class="fragment-off" data-fragment-index="3">Implement a “Process and Deploy” Workflow</text>
    <text transform="translate(424.238, 572)" id="Freeform_16--slide6--51" font-family="Carlito,sans-serif" font-size="35" font-weight="400" class="fragment-off" data-fragment-index="3">•</text>
    <text transform="translate(448.238, 572)" id="Freeform_16--slide6--52" font-family="Carlito,sans-serif" font-size="35" font-weight="400" class="fragment-off" data-fragment-index="3">$$$,$$$</text>
    <text transform="translate(424.238, 616)" id="Freeform_16--slide6--53" font-family="Carlito,sans-serif" font-size="35" font-weight="400" class="fragment-off" data-fragment-index="3">•</text>
    <text transform="translate(448.238, 616)" id="Freeform_16--slide6--54" font-family="Carlito,sans-serif" font-size="35" font-weight="400" class="fragment-off" data-fragment-index="3">6</text>
    <text transform="translate(465.738, 616)" id="Freeform_16--slide6--55" font-family="Carlito,sans-serif" font-size="35" font-weight="400" class="fragment-off" data-fragment-index="3">-</text>
    <text transform="translate(476.405, 616)" id="Freeform_16--slide6--56" font-family="Carlito,sans-serif" font-size="35" font-weight="400" class="fragment-off" data-fragment-index="3">12 months (with deliverables every 4 weeks or less)</text>
    <path d="M57.5001 500.834 C57.5001 484.081 72.0956 470.5 90.1002 470.5 L381.9 470.5 C399.904 470.5 414.5 484.081 414.5 500.834 L414.5 622.166 C414.5 638.919 399.904 652.5 381.9 652.5 L90.1002 652.5 C72.0956 652.5 57.5001 638.919 57.5001 622.166 L57.5001 500.834 Z" id="Freeform_17--slide6--57" fill-rule="evenodd" stroke-width="1.33333" stroke-miterlimit="8" class="fragment-off" data-fragment-index="3" style="fill:#4F81BD;stroke:white;" />
    <text transform="translate(93.2762, 581)" id="Freeform_17--slide6--58" font-family="Carlito,sans-serif" font-size="72" font-weight="400" class="fragment-off" data-fragment-index="3" style="fill:white;">Workflow</text>
    <a href="mailto:John@MultimodalSlides.com?subject=[Please%20Provide%20Subject]&body=Please answer the questions below to help reduce spam...%0D%0A%0D%0ADo you want to be added to my mailing list? (Yes, No)%0D%0A%0D%0AHow did you hear about me?  (My Site, YouTube, LinkedIn, GitHub, Sessionize, Search, Word-of-Mouth)%0D%0A%0D%0AHow can I help?%0D%0A" id="Rounded_Rectangle_9--slide6--59__LINK">
      <title>Email Me</title>
      <path d="M762 425.833 C762 419.85 766.85 415 772.833 415 L1173.17 415 C1179.15 415 1184 419.85 1184 425.833 L1184 469.167 C1184 475.15 1179.15 480 1173.17 480 L772.833 480 C766.85 480 762 475.15 762 469.167 Z" id="Rounded_Rectangle_9--slide6--59" fill-rule="evenodd" stroke-width="6" stroke-miterlimit="8" class="fragment-off" data-fragment-index="6" style="fill:#8064A2;stroke:#FFC000;" />
      <text transform="translate(783.305, 459)" id="Rounded_Rectangle_9--slide6--60" font-family="Carlito,sans-serif" font-size="32" font-weight="400" class="fragment-off" data-fragment-index="6" style="fill:white;">John@MultimodalSlides.com</text>
    </a>
    <path d="M783.758 462.75 L878.258 462.75 L972.758 462.75 L1067.26 462.75 L1161.76 462.75 L1161.76 464.75 L1067.26 464.75 L972.758 464.75 L878.258 464.75 L783.758 464.75 Z" id="Rounded_Rectangle_9--slide6--61" fill-rule="evenodd" class="fragment-off" data-fragment-index="6" style="fill:white;" />
    <path d="M762.5 270.333 C762.5 264.35 767.35 259.5 773.333 259.5 L1173.67 259.5 C1179.65 259.5 1184.5 264.35 1184.5 270.333 L1184.5 313.667 C1184.5 319.65 1179.65 324.5 1173.67 324.5 L773.333 324.5 C767.35 324.5 762.5 319.65 762.5 313.667 Z" id="Rounded_Rectangle_10--slide6--62" fill-rule="evenodd" stroke-width="1.33333" stroke-miterlimit="8" class="fragment-off" data-fragment-index="4" style="fill:#8064A2;stroke:#1C334E;" />
    <text transform="translate(846.929, 304)" id="Rounded_Rectangle_10--slide6--63" font-family="Carlito,sans-serif" font-size="37" font-weight="400" class="fragment-off" data-fragment-index="4" style="fill:white;">100% Guarantee</text>
    <path d="M762.5 348.333 C762.5 342.35 767.35 337.5 773.333 337.5 L1173.67 337.5 C1179.65 337.5 1184.5 342.35 1184.5 348.333 L1184.5 391.667 C1184.5 397.65 1179.65 402.5 1173.67 402.5 L773.333 402.5 C767.35 402.5 762.5 397.65 762.5 391.667 Z" id="Rounded_Rectangle_3--slide6--64" fill-rule="evenodd" stroke-width="1.33333" stroke-miterlimit="8" class="fragment-off" data-fragment-index="5" style="fill:#8064A2;stroke:#1C334E;" />
    <text transform="translate(839.235, 382)" id="Rounded_Rectangle_3--slide6--65" font-family="Carlito,sans-serif" font-size="37" font-weight="400" class="fragment-off" data-fragment-index="5" style="fill:white;">Free Consultation</text>
    <path d="M1069 13.3336 C1069 7.62651 1073.63 3 1079.33 3 L1264.67 3 C1270.37 3 1275 7.62651 1275 13.3336 L1275 54.6664 C1275 60.3735 1270.37 65 1264.67 65 L1079.33 65 C1073.63 65 1069 60.3735 1069 54.6664 Z" id="rectHighlight--slide6--66" fill-rule="evenodd" stroke-width="6" stroke-miterlimit="8" style="fill:none;stroke:#FFC000;" />
    <g clip-path="url(#clip21)" transform="matrix(0.000104987, 0, 0, 0.000104987, 1200, 640)" id="Slide6--slide6--67" style="display:none;">
      <g clip-path="url(#clip23)">
        <use xlink:href="#img22" width="100%" height="100%" transform="matrix(9525, 0, 0, 9525, -1, -0.5)" />
      </g>
    </g>
  </g>
</svg>
