<?xml version="1.0" encoding="utf-8"?>
<!DOCTYPE svg PUBLIC "-//W3C//DTD SVG 1.1//EN" "http://www.w3.org/Graphics/SVG/1.1/DTD/svg11.dtd">
<svg version="1.1" xmlns="http://www.w3.org/2000/svg" xmlns:xlink="http://www.w3.org/1999/xlink" xmlns:xml="http://www.w3.org/XML/1998/namespace" width="1280" height="720" overflow="hidden">
  <defs>
    <clipPath id="clip0">
      <rect x="0" y="0" width="1280" height="720" />
    </clipPath>
    <clipPath id="clip1">
      <rect x="0" y="3.63798E-12" width="2000250" height="885825" />
    </clipPath>
    <image preserveAspectRatio="none" width="280" height="125" xlink:href="images/Slide14--img2.png" id="img2" />
    <clipPath id="clip3">
      <rect x="0" y="0" width="1984248" height="885825" />
    </clipPath>
    <clipPath id="clip4">
      <rect x="0" y="0" width="1943100" height="762000" />
    </clipPath>
    <image preserveAspectRatio="none" width="405" height="159" xlink:href="images/Slide14--img5.jpg" id="img5" />
    <clipPath id="clip6">
      <rect x="0" y="0" width="1940944" height="762000" />
    </clipPath>
    <clipPath id="clip7">
      <rect x="0" y="0" width="1752600" height="514350" />
    </clipPath>
    <image preserveAspectRatio="none" width="225" height="125" xlink:href="images/Slide14--img8.jpg" id="img8" />
    <clipPath id="clip9">
      <rect x="0" y="240749" width="1752600" height="504476" />
    </clipPath>
    <clipPath id="clip10">
      <rect x="0" y="0" width="1123950" height="1181100" />
    </clipPath>
    <image preserveAspectRatio="none" width="150" height="158" xlink:href="images/Slide14--img11.png" id="img11" />
    <clipPath id="clip12">
      <rect x="0" y="0" width="1121298" height="1181100" />
    </clipPath>
    <image preserveAspectRatio="none" width="207" height="88" xlink:href="images/Slide14--img13.jpg" id="img13" />
    <clipPath id="clip14">
      <rect x="0" y="0" width="1792432" height="762000" />
    </clipPath>
    <clipPath id="clip15">
      <rect x="157515" y="157515" width="132644" height="132644" />
    </clipPath>
    <image preserveAspectRatio="none" width="32" height="32" xlink:href="images/Slide14--img16.png" id="img16" />
    <clipPath id="clip17">
      <path d="M0 223838 C-2.84975E-11 100215 100215 -9.5982E-10 223838 -9.88318E-10 C347460 -1.04531E-09 447675 100215 447675 223838 C447675 347460 347460 447675 223838 447675 C100215 447675 -1.42488E-10 347460 0 223838 Z" clip-rule="evenodd" fill-rule="evenodd" />
    </clipPath>
  </defs>
  <g clip-path="url(#clip0)" id="gSlide--slide14">
    <rect x="0" y="0" width="1280" height="720" id="rectSlide--slide14--0" style="fill:white;" />
    <text transform="translate(9.60063, 709)" id="SectionNameTextPlaceholder--slide14--1" font-family="Calibri,Calibri_MSFontService,sans-serif" font-size="20" font-weight="400" style="fill:#4F81BD;">(my voice</text>
    <text transform="translate(91.7073, 709)" id="SectionNameTextPlaceholder--slide14--2" font-family="Calibri,Calibri_MSFontService,sans-serif" font-size="20" font-weight="400" style="fill:#4F81BD;">–</text>
    <text transform="translate(106.207, 709)" id="SectionNameTextPlaceholder--slide14--3" font-family="Calibri,Calibri_MSFontService,sans-serif" font-size="20" font-weight="400" style="fill:#4F81BD;">manually recorded using the Narration feature in PowerPoint)</text>
    <rect x="0" y="0" width="1280" height="67" id="Title_2--slide14--4" style="fill:#8064A2;" />
    <text transform="translate(9.6, 46)" id="Title_2--slide14--5" font-family="Calibri Light,Calibri Light_MSFontService,sans-serif" font-size="43" font-weight="300" style="fill:white;">Choose your modality</text>
    <path d="M1272.5 107.001 L1272.5 185 C1272.5 195.769 1263.79 204.5 1253.04 204.5 L462.5 204.5 L462.5 204.5 L462.5 87.5001 L462.5 87.5001 L1253.04 87.5001 C1263.79 87.5001 1272.5 96.2307 1272.5 107.001 Z" id="Freeform_11--slide14--6" fill-rule="evenodd" stroke-width="1.33333" stroke-miterlimit="8" fill-opacity="0.9" stroke-opacity="0.9" class="fragment-off" data-fragment-index="1" style="fill:#D0D8E8;stroke:#D0D8E8;" />
    <text transform="translate(474.751, 157)" id="Freeform_11--slide14--7" font-family="Calibri,Calibri_MSFontService,sans-serif" font-size="41" font-weight="400" class="fragment-off" data-fragment-index="1">•</text>
    <text transform="translate(504.751, 157)" id="Freeform_11--slide14--8" font-family="Calibri,Calibri_MSFontService,sans-serif" font-size="41" font-weight="400" class="fragment-off" data-fragment-index="1">Slides with Notes (Transcript)</text>
    <path d="M7.50005 97.8339 C7.50005 84.3947 18.3768 73.5001 31.7938 73.5001 L438.206 73.5001 C451.623 73.5001 462.5 84.3947 462.5 97.8339 L462.5 195.166 C462.5 208.605 451.623 219.5 438.206 219.5 L31.7938 219.5 C18.3768 219.5 7.50005 208.605 7.50005 195.166 L7.50005 97.8339 Z" id="Freeform_12--slide14--9" fill-rule="evenodd" stroke-width="1.33333" stroke-miterlimit="8" class="fragment-off" data-fragment-index="1" style="fill:#4F81BD;stroke:white;" />
    <a href="https://bit.ly/MultimodalSlidesPDF" id="Freeform_12--slide14--10__LINK" target="_blank">
      <text transform="translate(29.5119, 160)" id="Freeform_12--slide14--10" font-family="Calibri,Calibri_MSFontService,sans-serif" font-size="52" font-weight="400" class="fragment-off" data-fragment-index="1" style="fill:blue;">Download</text>
    </a>
    <path d="M29.5119 165.601 L101.179 165.601 L172.845 165.601 L244.512 165.601 L244.512 168.601 L172.845 168.601 L101.179 168.601 L29.5119 168.601 Z" id="Freeform_12--slide14--11" fill-rule="evenodd" class="fragment-off" data-fragment-index="1" style="fill:blue;" />
    <path d="M1272.5 260.834 L1272.5 338.166 C1272.5 348.844 1263.79 357.5 1253.04 357.5 L462.5 357.5 L462.5 357.5 L462.5 241.5 L462.5 241.5 L1253.04 241.5 C1263.79 241.5 1272.5 250.156 1272.5 260.834 Z" id="Freeform_13--slide14--12" fill-rule="evenodd" stroke-width="1.33333" stroke-miterlimit="8" fill-opacity="0.9" stroke-opacity="0.9" class="fragment-off" data-fragment-index="2" style="fill:#D0D8E8;stroke:#D0D8E8;" />
    <text transform="translate(474.751, 311)" id="Freeform_13--slide14--13" font-family="Calibri,Calibri_MSFontService,sans-serif" font-size="41" font-weight="400" class="fragment-off" data-fragment-index="2">•</text>
    <text transform="translate(504.751, 311)" id="Freeform_13--slide14--14" font-family="Calibri,Calibri_MSFontService,sans-serif" font-size="41" font-weight="400" class="fragment-off" data-fragment-index="2">Video Exported from PowerPoint</text>
    <path d="M7.50005 250.834 C7.50005 237.395 18.3768 226.5 31.7938 226.5 L438.206 226.5 C451.623 226.5 462.5 237.395 462.5 250.834 L462.5 348.166 C462.5 361.605 451.623 372.5 438.206 372.5 L31.7938 372.5 C18.3768 372.5 7.50005 361.605 7.50005 348.166 L7.50005 250.834 Z" id="Freeform_14--slide14--15" fill-rule="evenodd" stroke-width="1.33333" stroke-miterlimit="8" class="fragment-off" data-fragment-index="2" style="fill:#4F81BD;stroke:white;" />
    <a href="https://bit.ly/MultimodalSlidesYouTube" id="Freeform_14--slide14--16__LINK" target="_blank">
      <text transform="translate(29.5119, 313)" id="Freeform_14--slide14--16" font-family="Calibri,Calibri_MSFontService,sans-serif" font-size="52" font-weight="400" class="fragment-off" data-fragment-index="2" style="fill:blue;">Watch</text>
    </a>
    <text transform="translate(176.432, 313)" id="Freeform_14--slide14--17" font-family="Calibri,Calibri_MSFontService,sans-serif" font-size="52" font-weight="400" class="fragment-off" data-fragment-index="2" style="fill:white;">on</text>
    <path d="M29.5119 318.839 L97.0119 318.839 L164.512 318.839 L164.512 321.839 L97.0119 321.839 L29.5119 321.839 Z" id="Freeform_14--slide14--18" fill-rule="evenodd" class="fragment-off" data-fragment-index="2" style="fill:blue;" />
    <path d="M1272.5 414.001 L1272.5 492 C1272.5 502.769 1263.79 511.5 1253.04 511.5 L462.5 511.5 L462.5 511.5 L462.5 394.5 L462.5 394.5 L1253.04 394.5 C1263.79 394.5 1272.5 403.231 1272.5 414.001 Z" id="Freeform_15--slide14--19" fill-rule="evenodd" stroke-width="1.33333" stroke-miterlimit="8" fill-opacity="0.9" stroke-opacity="0.9" class="fragment-off" data-fragment-index="3" style="fill:#D0D8E8;stroke:#D0D8E8;" />
    <text transform="translate(474.751, 442)" id="Freeform_15--slide14--20" font-family="Calibri,Calibri_MSFontService,sans-serif" font-size="41" font-weight="400" class="fragment-off" data-fragment-index="3">•</text>
    <text transform="translate(504.751, 442)" id="Freeform_15--slide14--21" font-family="Calibri,Calibri_MSFontService,sans-serif" font-size="41" font-weight="400" class="fragment-off" data-fragment-index="3">Download and Run the Slide Show with</text>
    <text transform="translate(504.751, 486)" id="Freeform_15--slide14--22" font-family="Calibri,Calibri_MSFontService,sans-serif" font-size="41" font-weight="400" class="fragment-off" data-fragment-index="3">Narrations</text>
    <path d="M7.50005 403.834 C7.50005 390.395 18.3768 379.5 31.7938 379.5 L438.206 379.5 C451.623 379.5 462.5 390.395 462.5 403.834 L462.5 501.166 C462.5 514.605 451.623 525.5 438.206 525.5 L31.7938 525.5 C18.3768 525.5 7.50005 514.605 7.50005 501.166 L7.50005 403.834 Z" id="Freeform_16--slide14--23" fill-rule="evenodd" stroke-width="1.33333" stroke-miterlimit="8" class="fragment-off" data-fragment-index="3" style="fill:#4F81BD;stroke:white;" />
    <a href="https://bit.ly/MultimodalSlidesPPT" id="Freeform_16--slide14--24__LINK" target="_blank">
      <text transform="translate(210.105, 466)" id="Freeform_16--slide14--24" font-family="Calibri,Calibri_MSFontService,sans-serif" font-size="52" font-weight="400" class="fragment-off" data-fragment-index="3" style="fill:blue;">Source File</text>
    </a>
    <path d="M210.512 472.076 L286.845 472.076 L363.179 472.076 L439.512 472.076 L439.512 475.076 L363.179 475.076 L286.845 475.076 L210.512 475.076 Z" id="Freeform_16--slide14--25" fill-rule="evenodd" class="fragment-off" data-fragment-index="3" style="fill:blue;" />
    <path d="M1272.5 567 L1272.5 645 C1272.5 655.769 1263.79 664.5 1253.04 664.5 L462.5 664.5 L462.5 664.5 L462.5 547.5 L462.5 547.5 L1253.04 547.5 C1263.79 547.5 1272.5 556.231 1272.5 567 Z" id="Freeform_17--slide14--26" fill-rule="evenodd" stroke-width="1.33333" stroke-miterlimit="8" fill-opacity="0.9" stroke-opacity="0.9" class="fragment-off" data-fragment-index="4" style="fill:#D0D8E8;stroke:#D0D8E8;" />
    <text transform="translate(474.751, 617)" id="Freeform_17--slide14--27" font-family="Calibri,Calibri_MSFontService,sans-serif" font-size="41" font-weight="400" class="fragment-off" data-fragment-index="4">•</text>
    <text transform="translate(504.751, 617)" id="Freeform_17--slide14--28" font-family="Calibri,Calibri_MSFontService,sans-serif" font-size="41" font-weight="400" class="fragment-off" data-fragment-index="4">See how the code and data is structured</text>
    <path d="M7.50005 556.834 C7.50005 543.395 18.3768 532.5 31.7938 532.5 L438.206 532.5 C451.623 532.5 462.5 543.395 462.5 556.834 L462.5 654.166 C462.5 667.605 451.623 678.5 438.206 678.5 L31.7938 678.5 C18.3768 678.5 7.50005 667.605 7.50005 654.166 L7.50005 556.834 Z" id="Freeform_18--slide14--29" fill-rule="evenodd" stroke-width="1.33333" stroke-miterlimit="8" class="fragment-off" data-fragment-index="4" style="fill:#4F81BD;stroke:white;" />
    <a href="https://bit.ly/MultimodalSlidesWebSiteSource" id="Freeform_18--slide14--30__LINK" target="_blank">
      <text transform="translate(43.3661, 591)" id="Freeform_18--slide14--30" font-family="Calibri,Calibri_MSFontService,sans-serif" font-size="52" font-weight="400" class="fragment-off" data-fragment-index="4" style="fill:blue;">Source Repository</text>
    </a>
    <path d="M43.5728 597.233 L139.073 597.233 L234.573 597.233 L330.073 597.233 L425.573 597.233 L425.573 600.233 L330.073 600.233 L234.573 600.233 L139.073 600.233 L43.5728 600.233 Z" id="Freeform_18--slide14--31" fill-rule="evenodd" class="fragment-off" data-fragment-index="4" style="fill:blue;" />
    <text transform="translate(126.573, 648)" id="Freeform_18--slide14--32" font-family="Calibri,Calibri_MSFontService,sans-serif" font-size="52" font-weight="400" class="fragment-off" data-fragment-index="4" style="fill:white;">on GitHub</text>
    <g clip-path="url(#clip1)" transform="matrix(0.000104987, 0, 0, 0.000104987, 1071, -3)" id="Content_Placeholder_17--slide14--33">
      <g clip-path="url(#clip3)" transform="matrix(1.00806, 0, 0, 1, -1, 0)">
        <use xlink:href="#img2" width="100%" height="100%" transform="scale(7086.6)" />
      </g>
    </g>
    <a href="https://bit.ly/MultimodalSlidesYouTube" id="WatchYouTubePicture--slide14--34__LINK" target="_blank">
      <g clip-path="url(#clip4)" transform="matrix(0.000104987, 0, 0, 0.000104987, 243, 257)" id="WatchYouTubePicture--slide14--34" class="fragment-off" data-fragment-index="2">
        <g clip-path="url(#clip6)" transform="scale(1.00111, 1)">
          <use xlink:href="#img5" width="100%" height="100%" transform="scale(4792.45)" />
        </g>
      </g>
    </a>
    <a href="https://bit.ly/MultimodalSlidesWebSiteSource" id="Picture_8--slide14--35__LINK" target="_blank">
      <g clip-path="url(#clip7)" transform="matrix(0.000104987, 0, 0, 0.000104987, 195, 607)" id="Picture_8--slide14--35" class="fragment-off" data-fragment-index="4">
        <g clip-path="url(#clip9)" transform="matrix(1, 0, 0, 1.01957, -0.125, -245461)">
          <use xlink:href="#img8" width="100%" height="100%" transform="scale(7789.33)" />
        </g>
      </g>
    </a>
    <a href="https://bit.ly/MultimodalSlidesPDF" id="Picture_10--slide14--36__LINK" target="_blank">
      <g clip-path="url(#clip10)" transform="matrix(0.000104987, 0, 0, 0.000104987, 276, 83)" id="Picture_10--slide14--36" class="fragment-off" data-fragment-index="1">
        <g clip-path="url(#clip12)" transform="scale(1.00237, 1)">
          <use xlink:href="#img11" width="100%" height="100%" transform="scale(7475.32)" />
        </g>
      </g>
    </a>
    <a href="https://bit.ly/MultimodalSlidesPPT" id="Picture_2--slide14--37__LINK" target="_blank">
      <g transform="matrix(0.000104987, 0, 0, 0.000104987, 14, 412)" id="Picture_2--slide14--37" class="fragment-off" data-fragment-index="3">
        <g clip-path="url(#clip14)" transform="scale(1.00966, 1)">
          <use xlink:href="#img13" width="100%" height="100%" transform="scale(8659.09)" />
        </g>
      </g>
    </a>
    <path d="M753.5 495.501 C753.5 487.216 760.216 480.5 768.501 480.5 L1233.5 480.5 C1241.78 480.5 1248.5 487.216 1248.5 495.501 L1248.5 555.5 C1248.5 563.784 1241.78 570.5 1233.5 570.5 L768.501 570.5 C760.216 570.5 753.5 563.784 753.5 555.5 Z" id="Rounded_Rectangle_6--slide14--38" fill-rule="evenodd" stroke-width="1.33333" stroke-miterlimit="8" class="fragment-off" data-fragment-index="5" style="fill:#9BBB59;stroke:#1C334E;" />
    <a href="mailto:John@MultimodalSlides.com?subject=I%20am%20interested%20in%20Multimodal%20Slides&body=(Please do not send attachments, unless requested.)%0D%0A%0D%0AAnswering the questions below helps me reduce spam...%0D%0ADo you want to be added to the mailing list? Y/N%0D%0ADo you want to become a beta tester? Y/N" id="Rounded_Rectangle_6--slide14--39__LINK">
      <text transform="translate(779.089, 538)" id="Rounded_Rectangle_6--slide14--39" font-family="Calibri,Calibri_MSFontService,sans-serif" font-size="37" font-weight="400" class="fragment-off" data-fragment-index="5" style="fill:blue;">John@MultimodalSlides.com</text>
    </a>
    <path d="M778.855 541.726 L889.605 541.726 L1000.36 541.726 L1111.11 541.726 L1221.86 541.726 L1221.86 543.726 L1111.11 543.726 L1000.36 543.726 L889.605 543.726 L778.855 543.726 Z" id="Rounded_Rectangle_6--slide14--40" fill-rule="evenodd" class="fragment-off" data-fragment-index="5" style="fill:blue;" />
    <g clip-path="url(#clip15)" transform="matrix(0.000104987, 0, 0, 0.000104987, 1224, 664)" id="Audio_30--slide14--41" style="display:none;">
      <g clip-path="url(#clip17)">
        <use xlink:href="#img16" width="100%" height="100%" transform="matrix(4145.14, 0, 0, 4145.14, 157515, 157515)" />
      </g>
    </g>
  </g>
</svg>
