<?xml version="1.0" encoding="utf-8"?>
<!DOCTYPE svg PUBLIC "-//W3C//DTD SVG 1.1//EN" "http://www.w3.org/Graphics/SVG/1.1/DTD/svg11.dtd">
<svg version="1.1" xmlns="http://www.w3.org/2000/svg" xmlns:xlink="http://www.w3.org/1999/xlink" xmlns:xml="http://www.w3.org/XML/1998/namespace" width="1280" height="720" overflow="hidden">
  <defs>
    <clipPath id="clip0">
      <rect x="0" y="0" width="1280" height="720" />
    </clipPath>
    <clipPath id="clip1">
      <rect x="0" y="3.63798E-12" width="2000250" height="885825" />
    </clipPath>
    <image preserveAspectRatio="none" width="280" height="125" xlink:href="images/Slide12--img2.png" id="img2" />
    <clipPath id="clip3">
      <rect x="0" y="0" width="1984248" height="885825" />
    </clipPath>
  </defs>
  <g clip-path="url(#clip0)" id="gSlide--slide12">
    <rect x="0" y="0" width="1280" height="720" id="rectSlide--slide12--0" style="fill:white;" />
    <text transform="translate(9.60063, 708)" id="SectionNameTextPlaceholder--slide12--1" font-family="Calibri,Calibri_MSFontService,sans-serif" font-size="21" font-weight="400" style="fill:#4F81BD;">Text</text>
    <text transform="translate(44.7806, 708)" id="SectionNameTextPlaceholder--slide12--2" font-family="Calibri,Calibri_MSFontService,sans-serif" font-size="21" font-weight="400" style="fill:#4F81BD;">-</text>
    <text transform="translate(51.2806, 708)" id="SectionNameTextPlaceholder--slide12--3" font-family="Calibri,Calibri_MSFontService,sans-serif" font-size="21" font-weight="400" style="fill:#4F81BD;">to</text>
    <text transform="translate(69.574, 708)" id="SectionNameTextPlaceholder--slide12--4" font-family="Calibri,Calibri_MSFontService,sans-serif" font-size="21" font-weight="400" style="fill:#4F81BD;">-</text>
    <text transform="translate(76.074, 708)" id="SectionNameTextPlaceholder--slide12--5" font-family="Calibri,Calibri_MSFontService,sans-serif" font-size="21" font-weight="400" style="fill:#4F81BD;">Speech with</text>
    <text transform="translate(186.741, 708)" id="SectionNameTextPlaceholder--slide12--6" font-family="Calibri,Calibri_MSFontService,sans-serif" font-size="21" font-weight="400" style="fill:#4F81BD;">Ana</text>
    <text transform="translate(225.241, 708)" id="SectionNameTextPlaceholder--slide12--7" font-family="Calibri,Calibri_MSFontService,sans-serif" font-size="21" font-weight="400" style="fill:#4F81BD;">-</text>
    <text transform="translate(236.574, 708)" id="SectionNameTextPlaceholder--slide12--8" font-family="Calibri,Calibri_MSFontService,sans-serif" font-size="21" font-weight="400" style="fill:#4F81BD;">a</text>
    <text transform="translate(251.574, 708)" id="SectionNameTextPlaceholder--slide12--9" font-family="Calibri,Calibri_MSFontService,sans-serif" font-size="21" font-weight="400" style="fill:#4F81BD;">Female</text>
    <text transform="translate(319.261, 708)" id="SectionNameTextPlaceholder--slide12--10" font-family="Calibri,Calibri_MSFontService,sans-serif" font-size="21" font-weight="400" style="fill:#4F81BD;">Voice</text>
    <rect x="0" y="0" width="1280" height="67" id="Title_10--slide12--11" style="fill:#8064A2;" />
    <text transform="translate(9.6, 46)" id="Title_10--slide12--12" font-family="Calibri Light,Calibri Light_MSFontService,sans-serif" font-size="43" font-weight="300" style="fill:white;">Nothing else out there provides this Multimodal Experience!</text>
    <path d="M102 223.75 L873.501 223.75 L873.501 72 L1177 375.501 L873.501 679 L873.501 527.25 L102 527.25 Z" id="Right_Arrow_5--slide12--13" fill-rule="evenodd" style="fill:#D0D8E8;" />
    <path d="M8.50005 295.001 C8.50005 272.633 26.5817 254.5 48.8865 254.5 L375.114 254.5 C397.418 254.5 415.5 272.633 415.5 295.001 L415.5 456.999 C415.5 479.367 397.418 497.5 375.114 497.5 L48.8865 497.5 C26.5817 497.5 8.50005 479.367 8.50005 456.999 L8.50005 295.001 Z" id="Freeform_6--slide12--14" fill-rule="evenodd" stroke-width="1.33333" stroke-miterlimit="8" class="fragment-off" data-fragment-index="1" style="fill:#4F81BD;stroke:white;" />
    <text transform="translate(128.599, 333)" id="Freeform_6--slide12--15" font-family="Calibri,Calibri_MSFontService,sans-serif" font-size="52" font-weight="400" class="fragment-off" data-fragment-index="1" style="fill:white;">Just use</text>
    <text transform="translate(37.1661, 390)" id="Freeform_6--slide12--16" font-family="Calibri,Calibri_MSFontService,sans-serif" font-size="52" font-weight="400" class="fragment-off" data-fragment-index="1" style="fill:white;">PowerPoint with</text>
    <text transform="translate(91.6394, 446)" id="Freeform_6--slide12--17" font-family="Calibri,Calibri_MSFontService,sans-serif" font-size="52" font-weight="400" class="fragment-off" data-fragment-index="1" style="fill:white;">NO Add</text>
    <text transform="translate(256.306, 446)" id="Freeform_6--slide12--18" font-family="Calibri,Calibri_MSFontService,sans-serif" font-size="52" font-weight="400" class="fragment-off" data-fragment-index="1" style="fill:white;">-</text>
    <text transform="translate(272.306, 446)" id="Freeform_6--slide12--19" font-family="Calibri,Calibri_MSFontService,sans-serif" font-size="52" font-weight="400" class="fragment-off" data-fragment-index="1" style="fill:white;">ins</text>
    <path d="M436.5 295.001 C436.5 272.633 454.582 254.5 476.887 254.5 L803.114 254.5 C825.418 254.5 843.5 272.633 843.5 295.001 L843.5 456.999 C843.5 479.367 825.418 497.5 803.114 497.5 L476.887 497.5 C454.582 497.5 436.5 479.367 436.5 456.999 L436.5 295.001 Z" id="Freeform_7--slide12--20" fill-rule="evenodd" stroke-width="1.33333" stroke-miterlimit="8" class="fragment-off" data-fragment-index="2" style="fill:#4F81BD;stroke:white;" />
    <text transform="translate(481.572, 333)" id="Freeform_7--slide12--21" font-family="Calibri,Calibri_MSFontService,sans-serif" font-size="52" font-weight="400" class="fragment-off" data-fragment-index="2" style="fill:white;">Best converted</text>
    <text transform="translate(550.685, 390)" id="Freeform_7--slide12--22" font-family="Calibri,Calibri_MSFontService,sans-serif" font-size="52" font-weight="400" class="fragment-off" data-fragment-index="2" style="fill:white;">Slides to</text>
    <text transform="translate(516.725, 446)" id="Freeform_7--slide12--23" font-family="Calibri,Calibri_MSFontService,sans-serif" font-size="52" font-weight="400" class="fragment-off" data-fragment-index="2" style="fill:white;">SVG images</text>
    <path d="M864.5 295.001 C864.5 272.633 882.582 254.5 904.887 254.5 L1231.11 254.5 C1253.42 254.5 1271.5 272.633 1271.5 295.001 L1271.5 456.999 C1271.5 479.367 1253.42 497.5 1231.11 497.5 L904.887 497.5 C882.582 497.5 864.5 479.367 864.5 456.999 L864.5 295.001 Z" id="Freeform_8--slide12--24" fill-rule="evenodd" stroke-width="1.33333" stroke-miterlimit="8" class="fragment-off" data-fragment-index="3" style="fill:#4F81BD;stroke:white;" />
    <text transform="translate(931.6, 361)" id="Freeform_8--slide12--25" font-family="Calibri,Calibri_MSFontService,sans-serif" font-size="52" font-weight="400" class="fragment-off" data-fragment-index="3" style="fill:white;">You own and</text>
    <text transform="translate(898.474, 418)" id="Freeform_8--slide12--26" font-family="Calibri,Calibri_MSFontService,sans-serif" font-size="52" font-weight="400" class="fragment-off" data-fragment-index="3" style="fill:white;">store your data!</text>
    <g clip-path="url(#clip1)" transform="matrix(0.000104987, 0, 0, 0.000104987, 1071, -3)" id="Content_Placeholder_17--slide12--27">
      <g clip-path="url(#clip3)" transform="matrix(1.00806, 0, 0, 1, -1, 0)">
        <use xlink:href="#img2" width="100%" height="100%" transform="scale(7086.6)" />
      </g>
    </g>
  </g>
</svg>
