<?xml version="1.0" encoding="utf-8"?>
<!DOCTYPE svg PUBLIC "-//W3C//DTD SVG 1.1//EN" "http://www.w3.org/Graphics/SVG/1.1/DTD/svg11.dtd">
<svg version="1.1" xmlns="http://www.w3.org/2000/svg" xmlns:xlink="http://www.w3.org/1999/xlink" xmlns:xml="http://www.w3.org/XML/1998/namespace" width="1280" height="720" overflow="hidden">
  <defs>
    <clipPath id="clip0">
      <rect x="0" y="0" width="981075" height="390525" />
    </clipPath>
    <image preserveAspectRatio="none" width="203" height="80" xlink:href="images/Slide7--img1.jpg" id="img1" />
    <clipPath id="clip2">
      <rect x="0" y="0" width="981075" height="386631" />
    </clipPath>
    <clipPath id="clip3">
      <rect x="0" y="0" width="2266950" height="1143000" />
    </clipPath>
    <image preserveAspectRatio="none" width="250" height="125" xlink:href="images/Slide7--img4.jpg" id="img4" />
    <clipPath id="clip5">
      <rect x="0" y="0" width="2266950" height="1133475" />
    </clipPath>
    <clipPath id="clip6">
      <rect x="0" y="-9.31323E-10" width="1619250" height="723900" />
    </clipPath>
    <image preserveAspectRatio="none" width="280" height="125" xlink:href="images/Slide7--img7.png" id="img7" />
    <clipPath id="clip8">
      <rect x="0" y="0" width="1619250" height="722879" />
    </clipPath>
    <clipPath id="clip9">
      <rect x="0" y="-9.31323E-10" width="1619250" height="714375" />
    </clipPath>
    <clipPath id="clip10">
      <rect x="0" y="0" width="1600200" height="714375" />
    </clipPath>
    <clipPath id="clip11">
      <rect x="0" y="0" width="1619250" height="714375" />
    </clipPath>
    <clipPath id="clip12">
      <rect x="0" y="0" width="1600200" height="714375" />
    </clipPath>
    <clipPath id="clip13">
      <rect x="0" y="0" width="2295525" height="971550" />
    </clipPath>
    <image preserveAspectRatio="none" width="413" height="175" xlink:href="images/Slide7--img14.jpg" id="img14" />
    <clipPath id="clip15">
      <rect x="0" y="0" width="2292858" height="971550" />
    </clipPath>
    <image preserveAspectRatio="none" width="160" height="37" xlink:href="images/Slide7--img16.png" id="img16" />
    <clipPath id="clip17">
      <rect x="0" y="0" width="1194486" height="276225" />
    </clipPath>
    <clipPath id="clip18">
      <rect x="0" y="0" width="857250" height="285750" />
    </clipPath>
    <image preserveAspectRatio="none" width="198" height="77" xlink:href="images/Slide7--img19.jpg" id="img19" />
    <clipPath id="clip20">
      <path d="M50864.2 43898.3 L908114 43898.3 L908114 327568 L50864.2 327568 Z" clip-rule="evenodd" fill-rule="evenodd" />
    </clipPath>
  </defs>
  <g id="gSlide--slide7">
    <rect x="0" y="0" width="1280" height="720" id="rectSlide--slide7--0" style="fill:white;" />
    <rect x="898.5" y="78.5001" width="344" height="606" id="Rectangle_80--slide7--1" stroke-width="1.33333" stroke-miterlimit="8" style="fill:#8064A2;stroke:#8064A2;" />
    <rect x="468.5" y="78.5001" width="344" height="606" id="Rectangle_79--slide7--2" stroke-width="1.33333" stroke-miterlimit="8" style="fill:#8064A2;stroke:#8064A2;" />
    <rect x="38.5001" y="78.5001" width="344" height="608" id="Rectangle_78--slide7--3" stroke-width="1.33333" stroke-miterlimit="8" style="fill:#8064A2;stroke:#8064A2;" />
    <text transform="translate(9.60063, 708)" id="SectionNameTextPlaceholder--slide7--4" font-family="Calibri,Calibri_MSFontService,sans-serif" font-size="21" font-weight="400" style="fill:#4F81BD;">Text</text>
    <text transform="translate(44.7806, 708)" id="SectionNameTextPlaceholder--slide7--5" font-family="Calibri,Calibri_MSFontService,sans-serif" font-size="21" font-weight="400" style="fill:#4F81BD;">-</text>
    <text transform="translate(51.2806, 708)" id="SectionNameTextPlaceholder--slide7--6" font-family="Calibri,Calibri_MSFontService,sans-serif" font-size="21" font-weight="400" style="fill:#4F81BD;">to</text>
    <text transform="translate(69.574, 708)" id="SectionNameTextPlaceholder--slide7--7" font-family="Calibri,Calibri_MSFontService,sans-serif" font-size="21" font-weight="400" style="fill:#4F81BD;">-</text>
    <text transform="translate(76.074, 708)" id="SectionNameTextPlaceholder--slide7--8" font-family="Calibri,Calibri_MSFontService,sans-serif" font-size="21" font-weight="400" style="fill:#4F81BD;">Speech with</text>
    <text transform="translate(186.741, 708)" id="SectionNameTextPlaceholder--slide7--9" font-family="Calibri,Calibri_MSFontService,sans-serif" font-size="21" font-weight="400" style="fill:#4F81BD;">Michelle</text>
    <text transform="translate(265.741, 708)" id="SectionNameTextPlaceholder--slide7--10" font-family="Calibri,Calibri_MSFontService,sans-serif" font-size="21" font-weight="400" style="fill:#4F81BD;">-</text>
    <text transform="translate(277.074, 708)" id="SectionNameTextPlaceholder--slide7--11" font-family="Calibri,Calibri_MSFontService,sans-serif" font-size="21" font-weight="400" style="fill:#4F81BD;">a Male Voice</text>
    <path d="M498.5 248.834 C498.5 243.127 503.127 238.5 508.834 238.5 L772.167 238.5 C777.874 238.5 782.5 243.127 782.5 248.834 L782.5 290.167 C782.5 295.874 777.874 300.5 772.167 300.5 L508.834 300.5 C503.127 300.5 498.5 295.874 498.5 290.167 Z" id="Rounded_Rectangle_7--slide7--12" fill-rule="evenodd" stroke-width="1.33333" stroke-miterlimit="8" style="fill:#4F81BD;stroke:#1C334E;" />
    <text transform="translate(510.587, 277)" id="Rounded_Rectangle_7--slide7--13" font-family="Calibri,Calibri_MSFontService,sans-serif" font-size="24" font-weight="400" style="fill:white;">Blog Post</text>
    <path d="M498.5 315 C498.5 309.201 503.201 304.5 509 304.5 L772 304.5 C777.799 304.5 782.5 309.201 782.5 315 L782.5 357 C782.5 362.799 777.799 367.5 772 367.5 L509 367.5 C503.201 367.5 498.5 362.799 498.5 357 Z" id="Rounded_Rectangle_8--slide7--14" fill-rule="evenodd" stroke-width="1.33333" stroke-miterlimit="8" style="fill:#4F81BD;stroke:#1C334E;" />
    <text transform="translate(510.586, 343)" id="Rounded_Rectangle_8--slide7--15" font-family="Calibri,Calibri_MSFontService,sans-serif" font-size="24" font-weight="400" style="fill:white;">Documentation Article</text>
    <path d="M498.5 447.834 C498.5 442.127 503.127 437.5 508.834 437.5 L772.167 437.5 C777.874 437.5 782.5 442.127 782.5 447.834 L782.5 489.167 C782.5 494.874 777.874 499.5 772.167 499.5 L508.834 499.5 C503.127 499.5 498.5 494.874 498.5 489.167 Z" id="Rounded_Rectangle_9--slide7--16" fill-rule="evenodd" stroke-width="1.33333" stroke-miterlimit="8" style="fill:#4F81BD;stroke:#1C334E;" />
    <text transform="translate(510.588, 476)" id="Rounded_Rectangle_9--slide7--17" font-family="Calibri,Calibri_MSFontService,sans-serif" font-size="24" font-weight="400" style="fill:white;">Audio File (.mp3)</text>
    <path d="M498.5 381 C498.5 375.201 503.201 370.5 509 370.5 L772 370.5 C777.799 370.5 782.5 375.201 782.5 381 L782.5 423 C782.5 428.799 777.799 433.5 772 433.5 L509 433.5 C503.201 433.5 498.5 428.799 498.5 423 Z" id="Rounded_Rectangle_10--slide7--18" fill-rule="evenodd" stroke-width="1.33333" stroke-miterlimit="8" style="fill:#4F81BD;stroke:#1C334E;" />
    <text transform="translate(510.588, 409)" id="Rounded_Rectangle_10--slide7--19" font-family="Calibri,Calibri_MSFontService,sans-serif" font-size="24" font-weight="400" style="fill:white;">Video File (.mp4)</text>
    <path d="M498.5 513.834 C498.5 508.127 503.127 503.5 508.834 503.5 L772.167 503.5 C777.874 503.5 782.5 508.127 782.5 513.834 L782.5 555.167 C782.5 560.874 777.874 565.5 772.167 565.5 L508.834 565.5 C503.127 565.5 498.5 560.874 498.5 555.167 Z" id="Rounded_Rectangle_11--slide7--20" fill-rule="evenodd" stroke-width="1.33333" stroke-miterlimit="8" style="fill:#4F81BD;stroke:#1C334E;" />
    <text transform="translate(510.588, 542)" id="Rounded_Rectangle_11--slide7--21" font-family="Calibri,Calibri_MSFontService,sans-serif" font-size="24" font-weight="400" style="fill:white;">Online Presentation</text>
    <path d="M898.5 94.8336 C898.5 89.1266 903.127 84.5001 908.834 84.5001 L1232.17 84.5001 C1237.87 84.5001 1242.5 89.1266 1242.5 94.8336 L1242.5 136.166 C1242.5 141.874 1237.87 146.5 1232.17 146.5 L908.834 146.5 C903.127 146.5 898.5 141.874 898.5 136.166 Z" id="Rounded_Rectangle_12--slide7--22" fill-rule="evenodd" stroke-width="1.33333" stroke-miterlimit="8" style="fill:#8064A2;stroke:#8064A2;" />
    <text transform="translate(1007.14, 129)" id="Rounded_Rectangle_12--slide7--23" font-family="Calibri,Calibri_MSFontService,sans-serif" font-size="43" font-weight="400" style="fill:white;">Publish</text>
    <path d="M68.5001 204.834 C68.5001 178.692 89.6922 157.5 115.834 157.5 L305.166 157.5 C331.308 157.5 352.5 178.692 352.5 204.834 L352.5 518.166 C352.5 544.308 331.308 565.5 305.166 565.5 L115.834 565.5 C89.6922 565.5 68.5001 544.308 68.5001 518.166 Z" id="Rounded_Rectangle_15--slide7--24" fill-rule="evenodd" stroke-width="1.33333" stroke-miterlimit="8" style="fill:#4F81BD;stroke:#1C334E;" />
    <text transform="translate(141.769, 201)" id="Rounded_Rectangle_15--slide7--25" font-family="Calibri,Calibri_MSFontService,sans-serif" font-size="27" font-weight="700" style="fill:white;">Slides Editor</text>
    <path d="M928.5 248.834 C928.5 243.127 933.127 238.5 938.834 238.5 L1202.17 238.5 C1207.87 238.5 1212.5 243.127 1212.5 248.834 L1212.5 290.167 C1212.5 295.874 1207.87 300.5 1202.17 300.5 L938.834 300.5 C933.127 300.5 928.5 295.874 928.5 290.167 Z" id="Rounded_Rectangle_18--slide7--26" fill-rule="evenodd" stroke-width="1.33333" stroke-miterlimit="8" style="fill:#4F81BD;stroke:#1C334E;" />
    <text transform="translate(940.643, 277)" id="Rounded_Rectangle_18--slide7--27" font-family="Calibri,Calibri_MSFontService,sans-serif" font-size="24" font-weight="400" style="fill:white;">Blog Website</text>
    <path d="M928.5 315 C928.5 309.201 933.201 304.5 939 304.5 L1202 304.5 C1207.8 304.5 1212.5 309.201 1212.5 315 L1212.5 357 C1212.5 362.799 1207.8 367.5 1202 367.5 L939 367.5 C933.201 367.5 928.5 362.799 928.5 357 Z" id="Rounded_Rectangle_19--slide7--28" fill-rule="evenodd" stroke-width="1.33333" stroke-miterlimit="8" style="fill:#4F81BD;stroke:#1C334E;" />
    <text transform="translate(940.643, 343)" id="Rounded_Rectangle_19--slide7--29" font-family="Calibri,Calibri_MSFontService,sans-serif" font-size="24" font-weight="400" style="fill:white;">Documentation Wiki</text>
    <path d="M928.5 447.834 C928.5 442.127 933.127 437.5 938.834 437.5 L1202.17 437.5 C1207.87 437.5 1212.5 442.127 1212.5 447.834 L1212.5 489.167 C1212.5 494.874 1207.87 499.5 1202.17 499.5 L938.834 499.5 C933.127 499.5 928.5 494.874 928.5 489.167 Z" id="Rounded_Rectangle_20--slide7--30" fill-rule="evenodd" stroke-width="1.33333" stroke-miterlimit="8" style="fill:#4F81BD;stroke:#1C334E;" />
    <text transform="translate(940.643, 476)" id="Rounded_Rectangle_20--slide7--31" font-family="Calibri,Calibri_MSFontService,sans-serif" font-size="24" font-weight="400" style="fill:white;">Podcast Platform</text>
    <path d="M928.5 381 C928.5 375.201 933.201 370.5 939 370.5 L1202 370.5 C1207.8 370.5 1212.5 375.201 1212.5 381 L1212.5 423 C1212.5 428.799 1207.8 433.5 1202 433.5 L939 433.5 C933.201 433.5 928.5 428.799 928.5 423 Z" id="Rounded_Rectangle_21--slide7--32" fill-rule="evenodd" stroke-width="1.33333" stroke-miterlimit="8" style="fill:#4F81BD;stroke:#1C334E;" />
    <text transform="translate(940.643, 409)" id="Rounded_Rectangle_21--slide7--33" font-family="Calibri,Calibri_MSFontService,sans-serif" font-size="24" font-weight="400" style="fill:white;">Video Platform</text>
    <path d="M928.5 513.834 C928.5 508.127 933.127 503.5 938.834 503.5 L1202.17 503.5 C1207.87 503.5 1212.5 508.127 1212.5 513.834 L1212.5 555.167 C1212.5 560.874 1207.87 565.5 1202.17 565.5 L938.834 565.5 C933.127 565.5 928.5 560.874 928.5 555.167 Z" id="Rounded_Rectangle_22--slide7--34" fill-rule="evenodd" stroke-width="1.33333" stroke-miterlimit="8" style="fill:#4F81BD;stroke:#1C334E;" />
    <text transform="translate(940.643, 542)" id="Rounded_Rectangle_22--slide7--35" font-family="Calibri,Calibri_MSFontService,sans-serif" font-size="24" font-weight="400" style="fill:white;">Slide Sharing Website</text>
    <path d="M498.5 182.834 C498.5 177.127 503.127 172.5 508.834 172.5 L772.167 172.5 C777.874 172.5 782.5 177.127 782.5 182.834 L782.5 224.167 C782.5 229.874 777.874 234.5 772.167 234.5 L508.834 234.5 C503.127 234.5 498.5 229.874 498.5 224.167 Z" id="Rounded_Rectangle_24--slide7--36" fill-rule="evenodd" stroke-width="1.33333" stroke-miterlimit="8" style="fill:#4F81BD;stroke:#1C334E;" />
    <text transform="translate(510.587, 211)" id="Rounded_Rectangle_24--slide7--37" font-family="Calibri,Calibri_MSFontService,sans-serif" font-size="24" font-weight="400" style="fill:white;">PDF / Images</text>
    <path d="M928.5 182.834 C928.5 177.127 933.127 172.5 938.834 172.5 L1202.17 172.5 C1207.87 172.5 1212.5 177.127 1212.5 182.834 L1212.5 224.167 C1212.5 229.874 1207.87 234.5 1202.17 234.5 L938.834 234.5 C933.127 234.5 928.5 229.874 928.5 224.167 Z" id="Rounded_Rectangle_25--slide7--38" fill-rule="evenodd" stroke-width="1.33333" stroke-miterlimit="8" style="fill:#4F81BD;stroke:#1C334E;" />
    <text transform="translate(940.643, 211)" id="Rounded_Rectangle_25--slide7--39" font-family="Calibri,Calibri_MSFontService,sans-serif" font-size="24" font-weight="400" style="fill:white;">Attach and Send Email</text>
    <path d="M38.5001 94.8336 C38.5001 89.1266 43.1265 84.5001 48.8336 84.5001 L372.167 84.5001 C377.874 84.5001 382.5 89.1266 382.5 94.8336 L382.5 136.166 C382.5 141.874 377.874 146.5 372.167 146.5 L48.8336 146.5 C43.1265 146.5 38.5001 141.874 38.5001 136.166 Z" id="Rounded_Rectangle_26--slide7--40" fill-rule="evenodd" stroke-width="1.33333" stroke-miterlimit="8" style="fill:#8064A2;stroke:#8064A2;" />
    <text transform="translate(153.233, 129)" id="Rounded_Rectangle_26--slide7--41" font-family="Calibri,Calibri_MSFontService,sans-serif" font-size="43" font-weight="400" style="fill:white;">Create</text>
    <path d="M468.5 94.8336 C468.5 89.1266 473.127 84.5001 478.834 84.5001 L802.167 84.5001 C807.874 84.5001 812.5 89.1266 812.5 94.8336 L812.5 136.166 C812.5 141.874 807.874 146.5 802.167 146.5 L478.834 146.5 C473.127 146.5 468.5 141.874 468.5 136.166 Z" id="Rounded_Rectangle_27--slide7--42" fill-rule="evenodd" stroke-width="1.33333" stroke-miterlimit="8" style="fill:#8064A2;stroke:#8064A2;" />
    <text transform="translate(571.813, 129)" id="Rounded_Rectangle_27--slide7--43" font-family="Calibri,Calibri_MSFontService,sans-serif" font-size="43" font-weight="400" style="fill:white;">Convert</text>
    <path d="M382 112 L453.3 112 L453.3 118 L382 118 Z M450.3 106 L468.3 115 L450.3 124 Z" id="Straight_Arrow_Connector_29--slide7--44" style="fill:#8064A2;" />
    <path d="M812 112 L883.298 112 L883.298 118 L812 118 Z M880.298 106 L898.298 115 L880.298 124 Z" id="Straight_Arrow_Connector_30--slide7--45" style="fill:#8064A2;" />
    <path d="M1.46911 -1.35709 L140.644 149.306 L137.706 152.02 L-1.46911 1.35709 Z M142.225 145.122 L145.96 158.008 L133.41 153.265 Z" transform="matrix(1, 0, 0, -1, 352, 361.008)" id="Straight_Arrow_Connector_38--slide7--46" />
    <path d="M1.06579 -1.69236 L138.564 84.8994 L136.433 88.2841 L-1.06579 1.69236 Z M139.003 80.4489 L145.96 91.9207 L132.609 90.6031 Z" transform="matrix(1, 0, 0, -1, 352, 360.921)" id="Straight_Arrow_Connector_43--slide7--47" />
    <path d="M0.343172 -1.97034 L136.45 21.7353 L135.764 25.676 L-0.343172 1.97034 Z M135.166 17.4515 L145.959 25.4215 L133.107 29.2735 Z" transform="matrix(1, 0, 0, -1, 352, 361.422)" id="Straight_Arrow_Connector_46--slide7--48" />
    <path d="M352.534 359.073 L488.857 396.847 L487.789 400.702 L351.466 362.927 Z M487.998 392.459 L497.96 401.445 L484.794 404.023 Z" id="Straight_Arrow_Connector_49--slide7--49" />
    <path d="M353.183 359.388 L491.082 460.594 L488.715 463.819 L350.817 362.612 Z M491.836 456.186 L497.96 468.123 L484.736 465.86 Z" id="Straight_Arrow_Connector_52--slide7--50" />
    <path d="M353.529 359.71 L493.041 525.098 L489.984 527.678 L350.471 362.29 Z M494.809 520.991 L497.96 534.032 L485.637 528.728 Z" id="Straight_Arrow_Connector_55--slide7--51" />
    <path d="M782 201 L917.959 201 L917.959 205 L782 205 Z M915.959 197 L927.959 203 L915.959 209 Z" id="Straight_Arrow_Connector_58--slide7--52" />
    <path d="M782 267 L917.959 267 L917.959 271 L782 271 Z M915.959 263 L927.959 269 L915.959 275 Z" id="Straight_Arrow_Connector_61--slide7--53" />
    <path d="M782 334 L917.96 334 L917.96 338 L782 338 Z M915.96 330 L927.96 336 L915.96 342 Z" id="Straight_Arrow_Connector_64--slide7--54" />
    <path d="M782 399 L917.959 399 L917.959 403 L782 403 Z M915.958 395 L927.958 401 L915.958 407 Z" id="Straight_Arrow_Connector_67--slide7--55" />
    <path d="M782 466 L917.959 466 L917.959 470 L782 470 Z M915.958 462 L927.958 468 L915.958 474 Z" id="Straight_Arrow_Connector_70--slide7--56" />
    <path d="M782 532 L917.959 532 L917.959 536 L782 536 Z M915.958 528 L927.958 534 L915.958 540 Z" id="Straight_Arrow_Connector_73--slide7--57" />
    <g clip-path="url(#clip0)" transform="matrix(0.000104987, 0, 0, 0.000104987, 1102, 381)" id="WatchYouTubePicture--slide7--58">
      <g clip-path="url(#clip2)" transform="matrix(1, 0, 0, 1.01007, 0, -0.25)">
        <use xlink:href="#img1" width="100%" height="100%" transform="scale(4832.88)" />
      </g>
    </g>
    <g clip-path="url(#clip3)" transform="matrix(0.000104987, 0, 0, 0.000104987, 91, 377)" id="Content_Placeholder_11--slide7--59">
      <g clip-path="url(#clip5)" transform="matrix(1, 0, 0, 1.0084, -0.0625, 0)">
        <use xlink:href="#img4" width="100%" height="100%" transform="scale(9067.8)" />
      </g>
    </g>
    <path d="M498.5 586.167 C498.5 576.41 506.41 568.5 516.167 568.5 L764.833 568.5 C774.59 568.5 782.5 576.41 782.5 586.167 L782.5 656.833 C782.5 666.59 774.59 674.5 764.833 674.5 L516.167 674.5 C506.41 674.5 498.5 666.59 498.5 656.833 Z" id="Rounded_Rectangle_5--slide7--60" fill-rule="evenodd" stroke-width="1.33333" stroke-miterlimit="8" class="fragment-off" data-fragment-index="2" style="fill:#4F81BD;stroke:#1C334E;" />
    <text transform="translate(512.548, 600)" id="Rounded_Rectangle_5--slide7--61" font-family="Calibri,Calibri_MSFontService,sans-serif" font-size="24" font-weight="400" class="fragment-off" data-fragment-index="2" style="fill:white;">Multimodal Web Page</text>
    <path d="M68.5001 586.167 C68.5001 576.41 76.4099 568.5 86.1671 568.5 L334.833 568.5 C344.59 568.5 352.5 576.41 352.5 586.167 L352.5 656.833 C352.5 666.59 344.59 674.5 334.833 674.5 L86.1671 674.5 C76.4099 674.5 68.5001 666.59 68.5001 656.833 Z" id="Rounded_Rectangle_13--slide7--62" fill-rule="evenodd" stroke-width="1.33333" stroke-miterlimit="8" class="fragment-off" data-fragment-index="1" style="fill:#4F81BD;stroke:#1C334E;" />
    <text transform="translate(82.6843, 600)" id="Rounded_Rectangle_13--slide7--63" font-family="Calibri,Calibri_MSFontService,sans-serif" font-size="24" font-weight="400" class="fragment-off" data-fragment-index="1" style="fill:white;">Practical AI Assistance</text>
    <path d="M928.5 586.167 C928.5 576.41 936.41 568.5 946.167 568.5 L1194.83 568.5 C1204.59 568.5 1212.5 576.41 1212.5 586.167 L1212.5 656.833 C1212.5 666.59 1204.59 674.5 1194.83 674.5 L946.167 674.5 C936.41 674.5 928.5 666.59 928.5 656.833 Z" id="Rounded_Rectangle_14--slide7--64" fill-rule="evenodd" stroke-width="1.33333" stroke-miterlimit="8" class="fragment-off" data-fragment-index="3" style="fill:#4F81BD;stroke:#1C334E;" />
    <text transform="translate(942.285, 600)" id="Rounded_Rectangle_14--slide7--65" font-family="Calibri,Calibri_MSFontService,sans-serif" font-size="24" font-weight="400" class="fragment-off" data-fragment-index="3" style="fill:white;">Multimodal Website</text>
    <g clip-path="url(#clip6)" transform="matrix(0.000104987, 0, 0, 0.000104987, 612, 611)" id="Content_Placeholder_17b--slide7--66" class="fragment-off" data-fragment-index="2">
      <g clip-path="url(#clip8)" transform="matrix(1, 0, 0, 1.00141, 0, -0.5)">
        <use xlink:href="#img7" width="100%" height="100%" transform="scale(5783.04)" />
      </g>
    </g>
    <g clip-path="url(#clip9)" transform="matrix(0.000104987, 0, 0, 0.000104987, 179, 611)" id="Content_Placeholder_17a--slide7--67" class="fragment-off" data-fragment-index="1">
      <g clip-path="url(#clip10)" transform="matrix(1.0119, 0, 0, 1, 0, -0.5)">
        <use xlink:href="#img7" width="100%" height="100%" transform="scale(5715)" />
      </g>
    </g>
    <g clip-path="url(#clip11)" transform="matrix(0.000104987, 0, 0, 0.000104987, 1042, 610)" id="Content_Placeholder_17--slide7--68" class="fragment-off" data-fragment-index="3">
      <g clip-path="url(#clip12)" transform="matrix(1.0119, 0, 0, 1, 0, -0.5)">
        <use xlink:href="#img7" width="100%" height="100%" transform="scale(5715)" />
      </g>
    </g>
    <path d="M353.744 360.021 L494.622 611.05 L491.134 613.008 L350.256 361.979 Z M497.132 607.348 L497.772 620.749 L486.667 613.221 Z" id="Straight_Arrow_Connector_32--slide7--69" class="fragment-off" data-fragment-index="2" />
    <path d="M2.88347E-06 -2 L135.64 -1.9998 L135.64 2.0002 L-2.88347E-06 2 Z M133.64 -5.99981 L145.64 0.000209974 L133.64 6.00019 Z" transform="matrix(1, 0, 0, -1, 782, 621)" id="Straight_Arrow_Connector_39--slide7--70" class="fragment-off" data-fragment-index="3" />
    <path d="M468.5 19.8336 C468.5 14.1266 473.127 9.50005 478.834 9.50005 L802.167 9.50005 C807.874 9.50005 812.5 14.1266 812.5 19.8336 L812.5 61.1665 C812.5 66.8736 807.874 71.5001 802.167 71.5001 L478.834 71.5001 C473.127 71.5001 468.5 66.8736 468.5 61.1665 Z" id="Rounded_Rectangle_44--slide7--71" fill-rule="evenodd" stroke-width="1.33333" stroke-miterlimit="8" style="fill:#00B050;stroke:#8064A2;" />
    <text transform="translate(516.39, 51)" id="Rounded_Rectangle_44--slide7--72" font-family="Calibri,Calibri_MSFontService,sans-serif" font-size="32" font-weight="400" style="fill:white;">Automatic Outputs</text>
    <path d="M38.5001 19.8336 C38.5001 14.1266 43.1265 9.50005 48.8336 9.50005 L372.167 9.50005 C377.874 9.50005 382.5 14.1266 382.5 19.8336 L382.5 61.1665 C382.5 66.8736 377.874 71.5001 372.167 71.5001 L48.8336 71.5001 C43.1265 71.5001 38.5001 66.8736 38.5001 61.1665 Z" id="Rounded_Rectangle_45--slide7--73" fill-rule="evenodd" stroke-width="1.33333" stroke-miterlimit="8" style="fill:#00B050;stroke:#8064A2;" />
    <text transform="translate(140.499, 51)" id="Rounded_Rectangle_45--slide7--74" font-family="Calibri,Calibri_MSFontService,sans-serif" font-size="32" font-weight="400" style="fill:white;">One Editor</text>
    <path d="M898.5 19.8336 C898.5 14.1266 903.127 9.50005 908.834 9.50005 L1232.17 9.50005 C1237.87 9.50005 1242.5 14.1266 1242.5 19.8336 L1242.5 61.1665 C1242.5 66.8736 1237.87 71.5001 1232.17 71.5001 L908.834 71.5001 C903.127 71.5001 898.5 66.8736 898.5 61.1665 Z" id="Rounded_Rectangle_47--slide7--75" fill-rule="evenodd" stroke-width="1.33333" stroke-miterlimit="8" style="fill:#00B050;stroke:#8064A2;" />
    <text transform="translate(989.446, 51)" id="Rounded_Rectangle_47--slide7--76" font-family="Calibri,Calibri_MSFontService,sans-serif" font-size="32" font-weight="400" style="fill:white;">Easy Sharing</text>
    <g clip-path="url(#clip13)" transform="matrix(0.000104987, 0, 0, 0.000104987, 91, 241)" id="Picture_2--slide7--77">
      <g clip-path="url(#clip15)" transform="matrix(1.00116, 0, 0, 1, -0.0625, 0)">
        <use xlink:href="#img14" width="100%" height="100%" transform="scale(5551.71)" />
      </g>
    </g>
    <rect x="1072" y="248" width="133" height="40" id="Rectangle_1--slide7--78" style="fill:white;" />
    <g transform="matrix(0.000104987, 0, 0, 0.000104987, 1074, 254)" id="Picture_12--slide7--79">
      <g clip-path="url(#clip17)" transform="scale(1.02866, 1)">
        <use xlink:href="#img16" width="100%" height="100%" transform="scale(7465.54)" />
      </g>
    </g>
    <g clip-path="url(#clip18)" transform="matrix(0.000104987, 0, 0, 0.000104987, 1115, 453)" id="Picture_10--slide7--80">
      <g clip-path="url(#clip20)" transform="matrix(1, 0, 0, 1.00733, -50864.3, -44220.3)">
        <use xlink:href="#img19" width="100%" height="100%" transform="scale(4843.33)" />
      </g>
    </g>
  </g>
</svg>
